PathFileType	4	(X/Y/Z)	C:/Users/opensim2020/Desktop/walking_exp_matlab/subject03_walking07_straight_03.trc																																																																																																																																								
DataRate	CameraRate	NumFrames	NumMarkers	Units	OrigDataRate	OrigDataStartFrame	OrigNumFrames																																																																																																																																				
100	100	4	46	mm	100	2241	306																																																																																																																																				
Frame#	Time	LFHD			RFHD			LBHD			RBHD			C7			T10			CLAV			STRN			RBAK			LSHO			LUPA			LELB			LFRM			LWRA			LWRB			LFIN			RSHO			RUPA			RELB			RFRM			RWRA			RWRB			RFIN			LASI			RASI			LPSI			RPSI			LTHI			LKNE			LTIB			LANK			LHEE			LTOE			RTHI			RKNE			RTIB			RANK			RHEE			RTOE			*39			*40			*41			*42			*43			*44			*45		
		X1	Y1	Z1	X2	Y2	Z2	X3	Y3	Z3	X4	Y4	Z4	X5	Y5	Z5	X6	Y6	Z6	X7	Y7	Z7	X8	Y8	Z8	X9	Y9	Z9	X10	Y10	Z10	X11	Y11	Z11	X12	Y12	Z12	X13	Y13	Z13	X14	Y14	Z14	X15	Y15	Z15	X16	Y16	Z16	X17	Y17	Z17	X18	Y18	Z18	X19	Y19	Z19	X20	Y20	Z20	X21	Y21	Z21	X22	Y22	Z22	X23	Y23	Z23	X24	Y24	Z24	X25	Y25	Z25	X26	Y26	Z26	X27	Y27	Z27	X28	Y28	Z28	X29	Y29	Z29	X30	Y30	Z30	X31	Y31	Z31	X32	Y32	Z32	X33	Y33	Z33	X34	Y34	Z34	X35	Y35	Z35	X36	Y36	Z36	X37	Y37	Z37	X38	Y38	Z38	X39	Y39	Z39	X40	Y40	Z40	X41	Y41	Z41	X42	Y42	Z42	X43	Y43	Z43	X44	Y44	Z44	X45	Y45	Z45	X46	Y46	Z46
																																																																																																																																											
77	0.76	-617.41638	1609.53052	1346.7926	-626.07709	1609.73523	1479.87744	-740.36096	1551.67151	1342.20227	-743.66699	1552.19543	1473.35889	-763.68903	1402.89795	1391.35815	-816.95642	1094.24597	1393.81921	-645.66034	1320.63965	1399.61987	-610.70135	1153.39319	1392.71387	-829.53925	1229.94275	1480.23718	-673.70459	1362.04639	1244.00415	-638.91791	1177.70825	1165.64526	-591.17572	1066.41821	1152.28589	-501.0191	977.22375	1167.4491	-420.86337	899.00208	1214.12415	-435.21756	884.37695	1162.44543	-369.42172	838.00128	1181.21497	-701.56836	1344.17749	1556.27441	-720.10992	1123.54407	1628.6106	-713.06958	1011.0014	1643.94482	-701.09869	874.27631	1647.70557	-669.12659	778.67255	1615.82129	-706.31592	773.83362	1655.56909	-683.84576	702.09137	1646.71912	-661.74023	924.87921	1275.87646	-652.50415	923.60614	1514.03711	-821.54553	947.4248	1334.5437	-815.29315	949.75079	1482.63123	-754.08807	630.14685	1243.63831	-786.45428	454.54889	1281.10046	-884.48401	280.7702	1279.13367	-955.80188	80.49051	1320.74121	-1003.74353	52.34806	1356.60547	-811.03296	33.82043	1342.07703	-644.91718	632.72858	1563.80188	-564.30371	471.64346	1524.84766	-538.66174	288.97821	1534.58411	-475.63058	79.13059	1495.45422	-507.2973	37.82647	1442.03418	-329.70712	73.1573	1474.97693	-708.63959	1659.65955	1393.7207	NaN	NaN	NaN	NaN	NaN	NaN	NaN	NaN	NaN	NaN	NaN	NaN	NaN	NaN	NaN	NaN	NaN	NaN
78	0.77	-607.78455	1609.00757	1347.22961	-616.5025	1609.17603	1480.48071	-730.70514	1550.99072	1342.95911	-734.05988	1551.5708	1474.20972	-753.83429	1402.04956	1392.43103	-806.78314	1093.43738	1394.59863	-635.67633	1319.96094	1400.36865	-600.69812	1152.68384	1393.2135	-819.2655	1229.13245	1481.31873	-664.21033	1361.41968	1244.79834	-630.07935	1176.83154	1166.73828	-582.6181	1065.30786	1153.57996	-492.72849	975.95001	1168.94971	-412.79224	897.59033	1215.86401	-427.04523	882.83594	1164.17175	-361.43878	836.3432	1183.14563	-691.11676	1343.3313	1557.18188	-709.9599	1122.65356	1629.28894	-703.14679	1010.09583	1644.55054	-691.64221	873.30219	1648.17371	-660.10632	777.58228	1616.09155	-697.04718	772.80731	1656.021	-675.10834	701.0545	1646.87695	-651.75183	924.039	1276.26611	-641.81134	923.12537	1514.49902	-811.8432	946.4679	1335.76318	-804.72614	949.1438	1483.60522	-745.69781	629.66937	1243.79419	-778.80139	453.93036	1280.75647	-879.65601	281.54938	1278.84863	-954.83447	82.91418	1319.91577	-1003.11731	55.26936	1355.92896	-810.84985	33.72546	1342.06909	-634.31	632.56409	1563.80078	-554.49719	470.99094	1524.99573	-530.5097	287.8078	1534.65076	-469.54941	77.33881	1495.23682	-502.26791	37.21184	1442.17432	-323.89841	69.86304	1474.29089	-699.00433	1659.20593	1394.5614	NaN	NaN	NaN	NaN	NaN	NaN	NaN	NaN	NaN	NaN	NaN	NaN	NaN	NaN	NaN	NaN	NaN	NaN
79	0.78	-598.19354	1608.45288	1348.1582	-606.72949	1608.85144	1481.18201	-720.92889	1550.43689	1343.78137	-724.26282	1551.10034	1475.00208	-743.80597	1401.52112	1393.5896	-796.58154	1092.84106	1395.52783	-625.63562	1319.47095	1401.16992	-590.55682	1152.21484	1393.90259	-809.01746	1228.53174	1482.57214	-654.62451	1360.93213	1245.6554	-621.13049	1176.03162	1167.93262	-574.12506	1064.29395	1155.0083	-484.61459	974.45288	1170.41577	-405.1539	895.7113	1217.45813	-419.45047	881.07355	1165.76343	-354.05573	834.25531	1184.93115	-680.59711	1342.7019	1558.18286	-699.57916	1121.92688	1630.09924	-693.03192	1009.38696	1645.2771	-682.00702	872.50238	1648.698	-650.79492	776.63953	1616.3313	-687.72852	772.02979	1656.46631	-666.24017	700.34497	1647.16687	-641.64703	923.2356	1276.62427	-630.70166	922.97968	1515.23352	-801.58771	945.60266	1337.00647	-794.01642	948.79449	1484.65308	-736.74725	629.1579	1244.07349	-770.69391	453.42749	1280.42346	-874.53192	282.50961	1278.52136	-953.14026	84.93083	1319.66748	-1002.33118	58.63862	1355.30347	-810.66113	33.61349	1341.97693	-623.61517	632.48627	1563.89819	-544.82056	470.40649	1525.151	-523.48755	286.31799	1534.45984	-465.74847	75.18928	1494.59497	-499.91446	36.72781	1441.50793	-320.59146	64.0936	1473.81921	-689.57416	1659.08655	1395.70667	NaN	NaN	NaN	NaN	NaN	NaN	NaN	NaN	NaN	NaN	NaN	NaN	NaN	NaN	NaN	NaN	NaN	NaN
80	0.79	-588.49561	1608.27466	1348.854	-596.91962	1608.78931	1481.97351	-711.06116	1550.04761	1344.65515	-714.44202	1550.90002	1475.98352	-733.97083	1401.28967	1394.89087	-785.95728	1092.34521	1396.49268	-615.39203	1319.25732	1402.12244	-580.26483	1152.04028	1394.50635	-798.64215	1228.0719	1483.89612	-644.93066	1360.68201	1246.57251	-612.42908	1175.28796	1169.15332	-565.88055	1063.3363	1156.49573	-476.84103	973.02081	1171.95129	-398.33859	893.32623	1218.90942	-412.31052	879.09943	1167.22571	-347.29974	831.74664	1186.57397	-670.01239	1342.27112	1559.25696	-689.09796	1121.43445	1631.00073	-682.67371	1008.79321	1645.9729	-672.15784	871.88629	1649.2948	-641.69037	776.01532	1616.77368	-678.34796	771.48871	1656.98242	-656.96704	699.5506	1647.48523	-631.23077	922.5686	1277.13074	-619.56738	923.07166	1515.98486	-790.79578	944.73877	1338.27075	-782.92755	948.74542	1485.85718	-727.66827	628.91699	1244.48157	-762.24994	453.04816	1280.10327	-869.09705	283.73755	1278.26001	-951.80798	87.90411	1319.13489	-1001.30499	62.64878	1354.80481	-810.4364	33.45615	1341.9707	-612.79138	632.7998	1564.10352	-535.56677	469.85834	1525.43274	-517.32184	284.95468	1533.7489	-463.36075	73.42102	1493.6333	-499.0484	37.16597	1439.47327	-318.63406	54.53482	1473.65503	-679.69391	1658.48108	1396.0542	NaN	NaN	NaN	NaN	NaN	NaN	NaN	NaN	NaN	NaN	NaN	NaN	NaN	NaN	NaN	NaN	NaN	NaN
